<svg width="814" height="596" viewBox="0 0 814 596" fill="none" xmlns="http://www.w3.org/2000/svg">
<path d="M465.272 610.624C465.272 668.992 511.279 716.308 568.032 716.308C624.784 716.308 670.791 668.992 670.791 610.624C670.791 552.255 624.784 504.939 568.032 504.939C511.279 504.939 465.272 552.255 465.272 610.624Z" fill="#393939"/>
<path d="M465.272 105.685C465.272 164.053 511.279 211.37 568.032 211.37C624.784 211.37 670.791 164.053 670.791 105.685C670.791 47.3167 624.784 -2.06828e-06 568.032 -4.61963e-06C511.279 -7.17098e-06 465.272 47.3167 465.272 105.685Z" fill="#95D0D5"/>
<path d="M0.000468531 375.768C0.00046605 434.136 46.0074 481.453 102.76 481.453C159.512 481.453 205.519 434.136 205.519 375.768C205.519 317.4 159.512 270.083 102.76 270.083C46.0074 270.083 0.000471011 317.4 0.000468531 375.768Z" fill="#FD7E50"/>
<path d="M902 716.308C875.011 716.308 848.286 710.841 823.351 700.219C798.417 689.596 775.76 674.027 756.676 654.4C737.592 634.772 722.454 611.471 712.125 585.826C701.797 560.182 696.481 532.696 696.481 504.939L902 504.939L902 716.308Z" fill="#FD7E50"/>
<path d="M696.481 504.939C696.481 477.181 701.797 449.696 712.125 424.051C722.454 398.406 737.592 375.105 756.676 355.478C775.76 335.85 798.417 320.281 823.351 309.659C848.286 299.036 875.011 293.569 902 293.569L902 504.939L696.481 504.939Z" fill="#95D0D5"/>
<path d="M902 234.855C847.493 234.855 795.218 212.586 756.676 172.946C718.134 133.307 696.481 79.5441 696.481 23.4854L902 23.4854L902 234.855Z" fill="#71357C"/>
<path d="M670.791 504.939C643.802 504.939 617.077 499.471 592.143 488.849C567.208 478.227 544.552 462.657 525.467 443.03C506.383 423.402 491.245 400.101 480.917 374.457C470.588 348.812 465.272 321.327 465.272 293.569L670.791 293.569L670.791 504.939Z" fill="#F35D5D"/>
<path d="M0.000425892 716.308C0.000427072 688.551 5.31635 661.065 15.6446 635.421C25.9729 609.776 41.1113 586.475 60.1955 566.847C79.2797 547.22 101.936 531.651 126.871 521.028C151.805 510.406 178.53 504.939 205.519 504.939L205.519 716.308L0.000425892 716.308Z" fill="#95D0D5"/>
<path d="M205.519 29.3569C232.508 29.3569 259.233 34.8242 284.168 45.4465C309.102 56.0688 331.758 71.6382 350.843 91.2657C369.927 110.893 385.065 134.194 395.394 159.839C405.722 185.483 411.038 212.969 411.038 240.727L205.519 240.727L205.519 29.3569Z" fill="#F35D5D"/>
<path d="M0.00044878 240.727C0.00044996 212.969 5.31637 185.484 15.6447 159.839C25.973 134.195 41.1114 110.893 60.1956 91.2659C79.2797 71.6384 101.936 56.069 126.871 45.4467C151.805 34.8244 178.53 29.3572 205.519 29.3572L205.519 240.727L0.00044878 240.727Z" fill="#393939"/>
<path d="M433.874 716.308C406.884 716.308 380.16 710.841 355.225 700.219C330.29 689.596 307.634 674.027 288.55 654.4C269.466 634.772 254.327 611.471 243.999 585.826C233.671 560.182 228.355 532.696 228.355 504.939C228.355 477.181 233.671 449.696 243.999 424.051C254.327 398.406 269.466 375.105 288.55 355.478C307.634 335.85 330.29 320.281 355.225 309.659C380.16 299.036 406.884 293.569 433.874 293.569L433.874 504.939L433.874 716.308Z" fill="#71357C"/>
</svg>
