<svg width="700" height="581" viewBox="0 0 700 581" fill="none" xmlns="http://www.w3.org/2000/svg">
<path d="M345.771 494.777C345.771 542.042 383.026 580.359 428.984 580.359C474.941 580.359 512.197 542.042 512.197 494.777C512.197 447.511 474.941 409.195 428.984 409.195C383.026 409.195 345.771 447.511 345.771 494.777Z" fill="#393939"/>
<path d="M345.771 85.8848C345.771 133.15 383.026 171.467 428.984 171.467C474.941 171.467 512.197 133.15 512.197 85.8848C512.197 38.6191 474.941 0.302733 428.984 0.302731C383.026 0.302729 345.771 38.6191 345.771 85.8848Z" fill="#95D0D5"/>
<path d="M-30.9998 304.594C-30.9998 351.86 6.25595 390.176 52.2133 390.176C98.1706 390.176 135.426 351.86 135.426 304.594C135.426 257.329 98.1706 219.012 52.2133 219.012C6.25596 219.012 -30.9998 257.329 -30.9998 304.594Z" fill="#FD7E50"/>
<path d="M699.426 580.359C677.571 580.359 655.93 575.932 635.738 567.33C615.546 558.728 597.199 546.12 581.745 530.226C566.291 514.332 554.032 495.463 545.669 474.696C537.305 453.93 533 431.672 533 409.195L699.426 409.195L699.426 580.359Z" fill="#FD7E50"/>
<path d="M533 409.195C533 386.717 537.305 364.46 545.669 343.693C554.032 322.927 566.291 304.058 581.745 288.164C597.199 272.269 615.546 259.662 635.738 251.06C655.93 242.458 677.571 238.031 699.426 238.031L699.426 409.195L533 409.195Z" fill="#95D0D5"/>
<path d="M699.426 190.485C655.287 190.485 612.956 172.452 581.745 140.352C550.534 108.253 533 64.7164 533 19.3208L699.426 19.3208L699.426 190.485Z" fill="#71357C"/>
<path d="M512.197 409.195C490.341 409.195 468.7 404.768 448.508 396.166C428.317 387.564 409.97 374.956 394.516 359.062C379.062 343.168 366.803 324.299 358.439 303.532C350.075 282.766 345.771 260.508 345.771 238.031L512.197 238.031L512.197 409.195Z" fill="#F35D5D"/>
<path d="M-30.9999 580.359C-30.9999 557.881 -26.6951 535.624 -18.3314 514.857C-9.9677 494.091 2.29116 475.222 17.7453 459.328C33.1994 443.434 51.5461 430.826 71.7378 422.224C91.9296 413.622 113.571 409.195 135.426 409.195L135.426 580.359L-30.9999 580.359Z" fill="#95D0D5"/>
<path d="M135.426 24.0756C157.282 24.0756 178.923 28.503 199.115 37.1048C219.307 45.7066 237.653 58.3144 253.108 74.2085C268.562 90.1025 280.82 108.972 289.184 129.738C297.548 150.505 301.853 172.762 301.853 195.24L135.426 195.24L135.426 24.0756Z" fill="#F35D5D"/>
<path d="M-30.9999 195.24C-30.9999 172.762 -26.6951 150.505 -18.3314 129.738C-9.9677 108.971 2.29116 90.1025 17.7453 74.2085C33.1994 58.3144 51.5461 45.7066 71.7378 37.1048C91.9296 28.503 113.571 24.0757 135.426 24.0757L135.426 195.24L-30.9999 195.24Z" fill="#393939"/>
<path d="M320.344 580.359C298.489 580.359 276.848 575.932 256.656 567.33C236.464 558.728 218.117 546.12 202.663 530.226C187.209 514.332 174.95 495.463 166.587 474.696C158.223 453.93 153.918 431.672 153.918 409.195C153.918 386.717 158.223 364.46 166.587 343.693C174.95 322.927 187.209 304.058 202.663 288.164C218.117 272.269 236.464 259.662 256.656 251.06C276.848 242.458 298.489 238.031 320.344 238.031L320.344 409.195L320.344 580.359Z" fill="#71357C"/>
</svg>
